<?xml version="1.0" encoding="iso-8859-1"?>
<!-- Uploaded to: SVG Repo, www.svgrepo.com, Generator: SVG Repo Mixer Tools -->
<!DOCTYPE svg PUBLIC "-//W3C//DTD SVG 1.1//EN" "http://www.w3.org/Graphics/SVG/1.1/DTD/svg11.dtd">
<svg fill="#FFFF22" version="1.1" id="Layer_1" xmlns="http://www.w3.org/2000/svg" x="0px" y="0px"
	 width="44px" height="44px" viewBox="0 0 32 32" xml:space="preserve">
<g>
	<g>
		<path d="M3.623,11.627c0,0,0.537-0.692,0.189-1.652C3.464,9.015,2.653,8.649,2.653,8.649s-0.607,0.825-0.268,1.761
			C2.724,11.348,3.623,11.627,3.623,11.627z"/>
		<path d="M5.292,10.466c-0.551,0.86-0.179,1.653-0.179,1.653s0.938-0.075,1.476-0.914c0.537-0.839,0.126-1.776,0.126-1.776
			S5.844,9.605,5.292,10.466z"/>
		<path d="M6.589,13.792c0.422-0.902-0.107-1.778-0.107-1.778s-0.84,0.289-1.274,1.214c-0.435,0.926,0.037,1.663,0.037,1.663
			S6.167,14.692,6.589,13.792z"/>
		<path d="M7.602,15.733c0.336-0.938-0.272-1.76-0.272-1.76s-0.81,0.366-1.156,1.328c-0.346,0.962,0.193,1.65,0.193,1.65
			S7.265,16.669,7.602,15.733z"/>
		<path d="M8.004,19.034c0,0,0.779-0.531,0.832-1.524c0.052-0.995-0.769-1.607-0.769-1.607s-0.67,0.585-0.724,1.605
			C7.29,18.527,8.004,19.034,8.004,19.034z"/>
		<path d="M5.894,8.507c0.244-0.991-0.229-1.746-0.229-1.746s-0.962,0.35-1.2,1.317C4.228,9.044,4.82,9.776,4.82,9.776
			S5.65,9.499,5.894,8.507z"/>
		<path d="M3.622,13.736c0,0,0.308-0.818-0.306-1.634c-0.616-0.816-1.499-0.926-1.499-0.926S1.48,12.144,2.08,12.938
			C2.68,13.734,3.622,13.736,3.622,13.736z"/>
		<path d="M1.982,13.806c0,0-0.113,1.018,0.647,1.658c0.762,0.643,1.681,0.436,1.681,0.436s0.118-0.867-0.662-1.525
			C2.867,13.715,1.982,13.806,1.982,13.806z"/>
		<path d="M4.267,16.435c-0.944-0.392-1.76-0.039-1.76-0.039s0.2,1.005,1.119,1.387c0.92,0.381,1.733-0.094,1.733-0.094
			S5.21,16.825,4.267,16.435z"/>
		<path d="M5.341,19.846c0.96,0.269,1.71-0.302,1.71-0.302s-0.25-0.838-1.235-1.113c-0.984-0.275-1.751,0.173-1.751,0.173
			S4.383,19.577,5.341,19.846z"/>
		<path d="M28.07,9.944c0.218-0.972-0.488-1.713-0.488-1.713s-0.759,0.465-0.98,1.462c-0.224,0.997,0.396,1.615,0.396,1.615
			S27.854,10.916,28.07,9.944z"/>
		<path d="M25.583,11.984c0,0,0.269-0.833-0.388-1.617c-0.656-0.783-1.543-0.848-1.543-0.848s-0.289,0.981,0.351,1.745
			C24.643,12.029,25.583,11.984,25.583,11.984z"/>
		<path d="M25.629,13.097c-0.548-0.862-1.419-1.043-1.419-1.043s-0.414,0.937,0.12,1.777c0.533,0.84,1.473,0.919,1.473,0.919
			S26.177,13.958,25.629,13.097z"/>
		<path d="M24.934,15.276c-0.465-0.91-1.313-1.172-1.313-1.172s-0.5,0.895-0.047,1.781c0.452,0.887,1.379,1.054,1.379,1.054
			S25.398,16.187,24.934,15.276z"/>
		<path d="M23.131,16.111c0,0-0.736,0.712-0.558,1.691c0.178,0.979,1.018,1.405,1.018,1.405s0.646-0.59,0.462-1.597
			C23.87,16.606,23.131,16.111,23.131,16.111z"/>
		<path d="M25.576,9.623c0,0,0.494-0.8,0.136-1.729c-0.358-0.93-1.356-1.154-1.356-1.154S23.982,7.549,24.35,8.5
			C24.717,9.455,25.576,9.623,25.576,9.623z"/>
		<path d="M27.363,11.741c-0.506,0.887-0.098,1.659-0.098,1.659s0.935-0.121,1.43-0.986c0.492-0.864,0.037-1.781,0.037-1.781
			S27.87,10.854,27.363,11.741z"/>
		<path d="M28.9,13.261c0,0-0.889,0.023-1.58,0.775s-0.463,1.598-0.463,1.598s0.938,0.088,1.61-0.646
			C29.143,14.254,28.9,13.261,28.9,13.261z"/>
		<path d="M28.71,15.897c0,0-0.854-0.248-1.741,0.26c-0.886,0.507-0.925,1.382-0.925,1.382s0.867,0.369,1.731-0.125
			C28.639,16.919,28.71,15.897,28.71,15.897z"/>
		<path d="M25.684,18.333c-0.939,0.398-1.082,1.264-1.082,1.264s0.815,0.469,1.733,0.081s1.108-1.394,1.108-1.394
			S26.625,17.938,25.684,18.333z"/>
		<path d="M32,22.721h-2.9v-2.757h-5.298c4.82-5.821,2.183-9.967,2.155-10.01l-0.407,0.27c0.108,0.165,2.546,4.051-2.388,9.74H8.793
			c-5.948-5.123-3.96-9.417-3.872-9.597l-0.437-0.214C4.462,10.2,2.33,14.734,8.06,19.964H2.842v2.757H0l0.505,2.832L0,28.56h7.56
			v-0.018l0.04,0.023l-0.003-2.763h16.805L24.4,28.565l0.039-0.021v0.017H32l-0.505-3.007L32,22.721z"/>
		<path d="M23.458,3.973l-0.074-0.533L6.848,3.435L6.773,3.968c-0.36,2.573,0.032,4.282,1.164,5.08
			c1.016,0.716,2.317,0.47,3.113,0.205l-0.723,0.805l0.921,0.826l0.835-0.931c0.481,0.563,0.975,0.88,1.291,1.009v1.812h0.465
			c-0.024,0.354-0.236,2.767-1.621,3.148c0,0.219,0,1.158,0,1.869h-0.76v0.901l7.313,0.005v-0.9h-0.76c0-0.713,0-1.65,0-1.869
			c-1.385-0.382-1.597-2.794-1.621-3.148h0.465v-1.812c0.316-0.129,0.81-0.446,1.291-1.009l0.836,0.931l0.92-0.826L19.18,9.258
			c0.797,0.265,2.098,0.511,3.113-0.205C23.426,8.254,23.818,6.545,23.458,3.973z M8.647,8.035C8,7.577,7.757,6.418,7.934,4.671
			L10.7,4.668C10.605,6,10.74,7.085,11.007,7.949C10.445,8.191,9.324,8.515,8.647,8.035z M21.584,8.039
			c-0.676,0.48-1.797,0.157-2.359-0.085c0.267-0.863,0.401-1.948,0.307-3.28l2.767,0.003C22.475,6.424,22.23,7.581,21.584,8.039z"/>
	</g>
</g>
</svg>
