<?xml version="1.0" encoding="UTF-8"?>
<svg id="Livello_2" data-name="Livello 2" xmlns="http://www.w3.org/2000/svg" viewBox="0 0 131.39 78.62">
  <defs>
    <style>
      .cls-1 {
        stroke-width: 0px;
      }
    </style>
  </defs>
  <g id="Livello_1-2" data-name="Livello 1">
    <g>
      <circle class="cls-1" cx="114.93" cy="22.26" r="9.27"/>
      <path class="cls-1" d="m9.97,47.1c3.62,17.98,19.5,31.52,38.54,31.52,21.71,0,39.31-17.6,39.31-39.31,0-10.46-4.09-19.97-10.75-27.01-9.06,2.46-18.82,5.99-28.93,10.62-16.67,7.64-29.68,15.92-38.17,24.18Z"/>
      <path class="cls-1" d="m49.19,19.01c8.65-3.97,17.05-7.12,24.97-9.49C67.27,3.59,58.31,0,48.51,0,26.79,0,9.19,17.6,9.19,39.31c0,1.81.13,3.6.36,5.35,8.42-8.74,21.98-17.56,39.63-25.65Z"/>
      <path class="cls-1" d="m129.26,10.93c-7.72-8.5-28.77-9.29-55.1-1.41,1.02.88,1.99,1.8,2.91,2.78,24.47-6.65,43.81-5.53,51.14,2.54,2.28,2.51,2.46,5.89,1.79,9.37,1.58-4.73,2.4-9.83-.73-13.28Z"/>
      <path class="cls-1" d="m0,61.17c1.71-4.6,5.09-9.33,9.97-14.07-.16-.81-.3-1.62-.41-2.44C4.16,50.27.88,55.84,0,61.17Z"/>
    </g>
  </g>
</svg>
